<svg
  xmlns="http://www.w3.org/2000/svg"
  xmlns:xlink="http://www.w3.org/1999/xlink" viewBox="0 0 480 480" shape-rendering="geometricPrecision" text-rendering="geometricPrecision" width="480" height="480">
  <g mask="url(#eNP3WzROvmE55)">
    <g transform="matrix(1.075103 0 0 1.075103 501.964427-18.156046)">
      <line x1="120" y1="-120" x2="-361.166774" y2="361.166787" transform="translate(314.454536 118.165221)" stroke="#ff9100" stroke-width="6"/>
      <line x1="120" y1="-120" x2="-361.166774" y2="361.166787" transform="translate(332.636354 118.165221)" stroke="#ff9100" stroke-width="6"/>
      <line x1="120" y1="-120" x2="-361.166774" y2="361.166787" transform="translate(-85.54546 118.165221)" stroke="#ff9100" stroke-width="6"/>
      <line x1="120" y1="-120" x2="-361.166774" y2="361.166787" transform="translate(259.909082 118.165221)" stroke="#ff9100" stroke-width="6"/>
      <line x1="120" y1="-120" x2="-361.166774" y2="361.166787" transform="translate(187.18181 118.165221)" stroke="#ff9100" stroke-width="6"/>
      <line x1="120" y1="-120" x2="-361.166774" y2="361.166787" transform="translate(114.454538 118.165221)" stroke="#ff9100" stroke-width="6"/>
      <line x1="120" y1="-120" x2="-361.166774" y2="361.166787" transform="translate(23.545448 118.165221)" stroke="#ff9100" stroke-width="6"/>
      <line x1="120" y1="-120" x2="-361.166774" y2="361.166787" transform="translate(78.090902 118.165221)" stroke="#ff9100" stroke-width="6"/>
      <line x1="120" y1="-120" x2="-361.166774" y2="361.166787" transform="translate(150.818174 118.165221)" stroke="#ff9100" stroke-width="6"/>
      <line x1="120" y1="-120" x2="-361.166774" y2="361.166787" transform="translate(223.545446 118.165221)" stroke="#ff9100" stroke-width="6"/>
      <line x1="120" y1="-120" x2="-361.166774" y2="361.166787" transform="translate(296.272718 118.165221)" stroke="#ff9100" stroke-width="6"/>
      <line x1="120" y1="-120" x2="-361.166774" y2="361.166787" transform="translate(-31.000006 118.165221)" stroke="#ff9100" stroke-width="6"/>
      <line x1="120" y1="-120" x2="-361.166774" y2="361.166787" transform="translate(41.727266 118.165221)" stroke="#ff9100" stroke-width="6"/>
      <line x1="120" y1="-120" x2="-361.166774" y2="361.166787" transform="translate(-12.818188 118.165221)" stroke="#ff9100" stroke-width="6"/>
      <line x1="120" y1="-120" x2="-361.166774" y2="361.166787" transform="translate(241.727264 118.165221)" stroke="#ff9100" stroke-width="6"/>
      <line x1="120" y1="-120" x2="-361.166774" y2="361.166787" transform="translate(168.999992 118.165221)" stroke="#ff9100" stroke-width="6"/>
      <line x1="120" y1="-120" x2="-361.166774" y2="361.166787" transform="translate(96.27272 118.165221)" stroke="#ff9100" stroke-width="6"/>
      <line x1="120" y1="-120" x2="-361.166774" y2="361.166787" transform="translate(5.36363 118.165221)" stroke="#ff9100" stroke-width="6"/>
      <line x1="120" y1="-120" x2="-361.166774" y2="361.166787" transform="translate(59.909084 118.165221)" stroke="#ff9100" stroke-width="6"/>
      <line x1="120" y1="-120" x2="-361.166774" y2="361.166787" transform="translate(132.636356 118.165221)" stroke="#ff9100" stroke-width="6"/>
      <line x1="120" y1="-120" x2="-361.166774" y2="361.166787" transform="translate(205.363628 118.165221)" stroke="#ff9100" stroke-width="6"/>
      <line x1="120" y1="-120" x2="-361.166774" y2="361.166787" transform="translate(278.0909 118.165221)" stroke="#ff9100" stroke-width="6"/>
      <line x1="120" y1="-120" x2="-361.166774" y2="361.166787" transform="translate(-558.272728 118.165221)" stroke="#ff9100" stroke-width="6"/>
      <line x1="120" y1="-120" x2="-361.166774" y2="361.166787" transform="translate(-412.818184 118.165221)" stroke="#ff9100" stroke-width="6"/>
      <line x1="120" y1="-120" x2="-361.166774" y2="361.166787" transform="translate(-503.727274 118.165221)" stroke="#ff9100" stroke-width="6"/>
      <line x1="120" y1="-120" x2="-361.166774" y2="361.166787" transform="translate(-521.909092 118.165221)" stroke="#ff9100" stroke-width="6"/>
      <line x1="120" y1="-120" x2="-361.166774" y2="361.166787" transform="translate(-431.000002 118.165221)" stroke="#ff9100" stroke-width="6"/>
      <line x1="120" y1="-120" x2="-361.166774" y2="361.166787" transform="translate(-576.454546 118.165221)" stroke="#ff9100" stroke-width="6"/>
      <line x1="120" y1="-120" x2="-361.166774" y2="361.166787" transform="translate(-67.363642 118.165221)" stroke="#ff9100" stroke-width="6"/>
      <line x1="120" y1="-120" x2="-361.166774" y2="361.166787" transform="translate(-158.272732 118.165221)" stroke="#ff9100" stroke-width="6"/>
      <line x1="120" y1="-120" x2="-361.166774" y2="361.166787" transform="translate(-231.000004 118.165221)" stroke="#ff9100" stroke-width="6"/>
      <line x1="120" y1="-120" x2="-361.166774" y2="361.166787" transform="translate(-303.727276 118.165221)" stroke="#ff9100" stroke-width="6"/>
      <line x1="120" y1="-120" x2="-361.166774" y2="361.166787" transform="translate(-376.454548 118.165221)" stroke="#ff9100" stroke-width="6"/>
      <line x1="120" y1="-120" x2="-361.166774" y2="361.166787" transform="translate(-467.363638 118.165221)" stroke="#ff9100" stroke-width="6"/>
      <line x1="120" y1="-120" x2="-361.166774" y2="361.166787" transform="translate(-340.090912 118.165221)" stroke="#ff9100" stroke-width="6"/>
      <line x1="120" y1="-120" x2="-361.166774" y2="361.166787" transform="translate(-267.36364 118.165221)" stroke="#ff9100" stroke-width="6"/>
      <line x1="120" y1="-120" x2="-361.166774" y2="361.166787" transform="translate(-194.636368 118.165221)" stroke="#ff9100" stroke-width="6"/>
      <line x1="120" y1="-120" x2="-361.166774" y2="361.166787" transform="translate(-485.545456 118.165221)" stroke="#ff9100" stroke-width="6"/>
      <line x1="120" y1="-120" x2="-361.166774" y2="361.166787" transform="translate(-394.636366 118.165221)" stroke="#ff9100" stroke-width="6"/>
      <line x1="120" y1="-120" x2="-361.166774" y2="361.166787" transform="translate(-540.09091 118.165221)" stroke="#ff9100" stroke-width="6"/>
      <line x1="120" y1="-120" x2="-361.166774" y2="361.166787" transform="translate(-49.181824 118.165221)" stroke="#ff9100" stroke-width="6"/>
      <line x1="120" y1="-120" x2="-361.166774" y2="361.166787" transform="translate(-140.090914 118.165221)" stroke="#ff9100" stroke-width="6"/>
      <line x1="120" y1="-120" x2="-361.166774" y2="361.166787" transform="translate(-212.818186 118.165221)" stroke="#ff9100" stroke-width="6"/>
      <line x1="120" y1="-120" x2="-361.166774" y2="361.166787" transform="translate(-285.545458 118.165221)" stroke="#ff9100" stroke-width="6"/>
      <line x1="120" y1="-120" x2="-361.166774" y2="361.166787" transform="translate(-358.27273 118.165221)" stroke="#ff9100" stroke-width="6"/>
      <line x1="120" y1="-120" x2="-361.166774" y2="361.166787" transform="translate(-449.18182 118.165221)" stroke="#ff9100" stroke-width="6"/>
      <line x1="120" y1="-120" x2="-361.166774" y2="361.166787" transform="translate(-321.909094 118.165221)" stroke="#ff9100" stroke-width="6"/>
      <line x1="120" y1="-120" x2="-361.166774" y2="361.166787" transform="translate(-249.181822 118.165221)" stroke="#ff9100" stroke-width="6"/>
      <line x1="120" y1="-120" x2="-361.166774" y2="361.166787" transform="translate(-176.45455 118.165221)" stroke="#ff9100" stroke-width="6"/>
      <line x1="120" y1="-120" x2="-361.166774" y2="361.166787" transform="translate(-103.727278 118.165221)" stroke="#ff9100" stroke-width="6"/>
      <line x1="120" y1="-120" x2="-361.166774" y2="361.166787" transform="translate(-121.909096 118.165221)" stroke="#ff9100" stroke-width="6"/>
    </g>
    <mask id="eNP3WzROvmE55" mask-type="luminance">
      <path d="M0,480v-240h240v240h-240ZM240,240v-240h240v240h-240Z" fill="#fff"/>
    </mask>
  </g>
</svg>